<?xml version="1.0" standalone="no"?>
<!DOCTYPE svg PUBLIC "-//W3C//DTD SVG 20010904//EN"
 "http://www.w3.org/TR/2001/REC-SVG-20010904/DTD/svg10.dtd">
<svg version="1.0" xmlns="http://www.w3.org/2000/svg"
 width="700.000000pt" height="700.000000pt" viewBox="0 0 700.000000 700.000000"
 preserveAspectRatio="xMidYMid meet">
<metadata>
Created by potrace 1.14, written by Peter Selinger 2001-2017
</metadata>
<g transform="translate(0.000000,700.000000) scale(0.100000,-0.100000)"
fill="#000000" stroke="none">
<path d="M3723 6980 c-58 -20 -80 -34 -373 -225 -206 -135 -527 -343 -685
-445 -47 -30 -185 -120 -308 -200 -274 -178 -467 -304 -660 -429 -81 -53 -238
-155 -350 -228 -111 -72 -254 -165 -317 -206 -63 -41 -176 -114 -250 -162
-414 -269 -444 -292 -549 -433 -59 -78 -149 -257 -181 -357 -50 -160 -49 -133
-49 -1370 0 -699 4 -1180 9 -1209 43 -218 197 -296 390 -198 41 21 201 118
355 216 397 253 405 258 406 265 0 3 2 305 4 671 2 366 6 679 9 695 3 17 8 55
11 85 8 68 40 218 61 285 95 300 309 545 694 797 133 86 346 225 445 289 50
32 95 63 102 68 7 6 14 11 17 11 2 0 26 15 53 32 27 18 129 85 226 148 98 63
233 151 300 195 67 44 185 121 262 170 77 50 201 131 277 180 76 50 208 135
293 190 l155 100 -3 430 -2 430 -25 60 c-26 63 -83 128 -128 147 -45 19 -133
18 -189 -2z"/>
<path d="M5200 6245 c-53 -17 -118 -56 -438 -265 -130 -85 -309 -201 -397
-258 -88 -57 -218 -142 -290 -189 -71 -47 -175 -114 -230 -149 -55 -36 -147
-96 -205 -133 -173 -113 -390 -254 -480 -313 -216 -140 -538 -349 -665 -432
-76 -50 -174 -113 -217 -141 -299 -192 -406 -265 -461 -315 -114 -105 -238
-304 -296 -476 -57 -171 -57 -168 -55 -1429 0 -1072 2 -1164 18 -1217 57 -190
206 -250 385 -158 31 16 214 128 406 248 l350 220 1 588 c2 523 7 784 18 879
24 206 60 342 128 480 113 229 276 375 780 702 184 119 255 166 413 268 138
90 340 221 470 305 54 36 155 101 222 145 68 44 213 139 323 210 110 72 281
183 380 248 l181 117 -5 418 c-3 339 -7 426 -19 463 -31 93 -68 143 -129 175
-43 22 -134 27 -188 9z"/>
<path d="M6667 5504 c-55 -17 -92 -38 -277 -159 -74 -48 -171 -111 -215 -140
-75 -48 -123 -80 -387 -252 -57 -36 -148 -95 -203 -131 -131 -85 -301 -196
-450 -293 -128 -84 -187 -122 -645 -419 -162 -105 -392 -254 -510 -331 -118
-77 -271 -177 -340 -221 -336 -218 -373 -247 -463 -366 -101 -132 -204 -350
-223 -472 -3 -19 -10 -53 -15 -75 -5 -23 -8 -549 -6 -1225 2 -1329 -3 -1238
76 -1337 59 -75 156 -101 252 -68 72 25 102 42 389 230 52 34 219 142 370 240
151 98 352 228 445 289 94 62 256 167 360 235 171 111 697 452 1485 965 160
104 310 209 342 240 84 80 173 206 228 321 55 115 72 165 100 290 19 87 20
125 17 1275 l-2 1185 -25 62 c-27 66 -74 124 -121 149 -42 21 -126 25 -182 8z"/>
</g>
</svg>
